<svg xmlns="http://www.w3.org/2000/svg" viewBox="0 0 48 48">
  <path fill="#FFC107" d="M43.611,20.083H42V20H24v8h11.303C33.83,32.491,29.321,36,24,36c-6.627,0-12-5.373-12-12 s5.373-12,12-12c3.059,0,5.842,1.154,7.961,3.039l5.657-5.657C33.64,6.053,29.062,4,24,4C12.955,4,4,12.955,4,24 s8.955,20,20,20s20-8.955,20-20C44,22.659,43.862,21.35,43.611,20.083z"/>
  <path fill="#FF3D00" d="M6.306,14.691l6.571,4.818C14.655,16.289,18.961,12,24,12c3.059,0,5.842,1.154,7.961,3.039l5.657-5.657 C33.64,6.053,29.062,4,24,4C16.318,4,9.656,8.337,6.306,14.691z"/>
  <path fill="#4CAF50" d="M24,44c5.241,0,10.018-2.005,13.605-5.271l-6.277-5.316C29.292,35.091,26.791,36,24,36 c-5.3,0-9.799-3.473-11.395-8.295l-6.55,5.047C9.37,39.556,16.131,44,24,44z"/>
  <path fill="#1976D2" d="M43.611,20.083H42V20H24v8h11.303c-1.082,3.164-3.284,5.642-6.078,7.097l0.001-0.001l6.277,5.316 C34.167,41.254,44,36,44,24C44,22.659,43.862,21.35,43.611,20.083z"/>
</svg>

